<svg xmlns="http://www.w3.org/2000/svg" xmlns:xlink="http://www.w3.org/1999/xlink" viewBox="0,0,256,256" width="96px" height="96px" fill-rule="nonzero"><g fill="#1978e3" fill-rule="nonzero" stroke="none" stroke-width="1" stroke-linecap="butt" stroke-linejoin="miter" stroke-miterlimit="10" stroke-dasharray="" stroke-dashoffset="0" font-family="none" font-weight="none" font-size="none" text-anchor="none" style="mix-blend-mode: normal"><g transform="scale(10.66667,10.66667)"><path d="M14.41,13h7.54c-0.5,5.05 -4.77,9 -9.95,9c-5.52,0 -10,-4.48 -10,-10c0,-5.52 4.48,-10 10,-10c5.18,0 9.45,3.95 9.95,9h-7.54l2.54,-2.54l-1.41,-1.41l-2.54,2.54v-3.59h-2v3.59l-2.54,-2.54l-1.41,1.41l2.54,2.54h-3.59v2h3.59l-2.54,2.54l1.41,1.41l2.54,-2.54v3.59h2v-3.59l2.54,2.54l1.41,-1.41z"></path></g></g></svg>